name rise42.5664peak47.7979fall81.9185.mot
datacolumns 19
datarows 12
range 6.49997200000000 6.51831000000000
endheader
time	ground_force1_vx	ground_force1_vy	ground_force1_vz	ground_force1_px	ground_force1_py	ground_force1_pz	ground_force2_vx	ground_force2_vy	ground_force2_vz	ground_force2_px	ground_force2_py	ground_force2_pz	ground_torque1_x	ground_torque1_y	ground_torque1_z	ground_torque2_x	ground_torque2_y	ground_torque2_z	
6.49997200000000	-32.24184100000000	811.07631200000003	48.16922200000000	0.08876800000000	0.00000000000000	0.07822400000000	-1.99318000000000	7.31090100000000	1.09455300000000	0.00000000000000	0.00000000000000	0.00000000000000	0.00000000000000	13.60840600000000	0.00000000000000	0.00000000000000	0.22149000000000	0.00000000000000	
6.50164600000000	-32.99516200000000	809.85791800000004	48.13645100000000	0.08775100000000	0.00000000000000	0.07821500000000	-2.88422200000000	11.57536200000000	1.65046800000000	0.00000000000000	0.00000000000000	0.00000000000000	0.00000000000000	13.54838400000000	0.00000000000000	0.00000000000000	0.34523700000000	0.00000000000000	
6.50330800000000	-33.76603100000000	808.53378799999996	48.08489200000000	0.08673600000000	0.00000000000000	0.07820400000000	-3.86370600000000	16.53087400000000	2.27859000000000	0.00000000000000	0.00000000000000	0.00000000000000	0.00000000000000	13.48960700000000	0.00000000000000	0.00000000000000	0.48765300000000	0.00000000000000	
6.50497400000000	-34.55428300000000	807.10166500000003	48.01390600000000	0.08572200000000	0.00000000000000	0.07819300000000	-4.90082000000000	22.09953000000000	2.96385000000000	0.00000000000000	0.00000000000000	0.00000000000000	0.00000000000000	13.43218300000000	0.00000000000000	0.00000000000000	0.64603600000000	0.00000000000000	
6.50663700000000	-35.35968800000000	805.55924400000004	47.92288600000000	0.08471000000000	0.00000000000000	0.07818200000000	-5.95994200000000	28.17658000000000	3.68780700000000	0.29313400000000	0.00000000000000	-0.09111800000000	0.00000000000000	13.37621300000000	0.00000000000000	0.00000000000000	1.35485300000000	0.00000000000000	
6.50830400000000	-36.18193900000000	803.90417700000000	47.81126300000000	0.08370000000000	0.00000000000000	0.07816900000000	-7.00324200000000	34.63912500000000	4.43001900000000	0.29696900000000	0.00000000000000	-0.09127500000000	0.00000000000000	13.32179500000000	0.00000000000000	0.00000000000000	1.67253900000000	0.00000000000000	
6.50997800000000	-37.02066100000000	802.13407199999995	47.67850300000000	0.08269200000000	0.00000000000000	0.07815500000000	-7.99353900000000	41.35656600000000	5.16961400000000	0.30037900000000	0.00000000000000	-0.09142900000000	0.00000000000000	13.26901800000000	0.00000000000000	0.00000000000000	2.00168200000000	0.00000000000000	
6.51164200000000	-37.87540000000000	800.24649299999999	47.52411300000000	0.08168800000000	0.00000000000000	0.07814000000000	-8.89702200000000	48.20130700000000	5.88683900000000	0.30343100000000	0.00000000000000	-0.09157900000000	0.00000000000000	13.21796300000000	0.00000000000000	0.00000000000000	2.33472100000000	0.00000000000000	
6.51330700000000	-38.74562600000000	798.23896000000002	47.34764400000000	0.08068600000000	0.00000000000000	0.07812500000000	-9.68547900000000	55.05829700000000	6.56439100000000	0.30618100000000	0.00000000000000	-0.09172700000000	0.00000000000000	13.16870500000000	0.00000000000000	0.00000000000000	2.66464100000000	0.00000000000000	
6.51497400000000	-39.63073100000000	796.10895400000004	47.14869200000000	0.07968800000000	0.00000000000000	0.07810800000000	-10.33782800000000	61.83240300000000	7.18838500000000	0.30867200000000	0.00000000000000	-0.09187300000000	0.00000000000000	13.12130700000000	0.00000000000000	0.00000000000000	2.98540600000000	0.00000000000000	
6.51664600000000	-40.53003100000000	793.85391800000002	46.92690000000000	0.07869500000000	0.00000000000000	0.07808900000000	-10.84085100000000	68.45310000000001	7.74891800000000	0.31094100000000	0.00000000000000	-0.09201700000000	0.00000000000000	13.07582700000000	0.00000000000000	0.00000000000000	3.29224200000000	0.00000000000000	
6.51831000000000	-41.44275800000000	791.47126100000003	46.68196200000000	0.07770600000000	0.00000000000000	0.07807000000000	-11.18918500000000	74.87640200000000	8.24020700000000	0.31301600000000	0.00000000000000	-0.09216100000000	0.00000000000000	13.03230800000000	0.00000000000000	0.00000000000000	3.58177900000000	0.00000000000000	
